<?xml version="1.0" standalone="no"?>
<!DOCTYPE svg PUBLIC "-//W3C//DTD SVG 20010904//EN"
 "http://www.w3.org/TR/2001/REC-SVG-20010904/DTD/svg10.dtd">
<svg version="1.0" xmlns="http://www.w3.org/2000/svg"
 width="425.000000pt" height="266.000000pt" viewBox="0 0 425.000000 266.000000"
 preserveAspectRatio="xMidYMid meet">
<metadata>
Created by potrace 1.12, written by Peter Selinger 2001-2015
</metadata>
<g transform="translate(0.000000,266.000000) scale(0.100000,-0.100000)"
fill="#000000" stroke="none">
<path d="M203 1423 c18 -5 23 -28 7 -38 -5 -3 -6 -13 -3 -23 6 -15 4 -15 -12
2 -11 11 -21 14 -23 8 -2 -6 -10 -8 -18 -5 -8 3 -14 -1 -14 -10 0 -10 -11 -17
-32 -19 -42 -4 -50 -28 -9 -28 30 0 31 -1 31 -45 l0 -45 2005 0 2005 0 0 29
c0 17 -5 33 -10 36 -16 10 -1 25 26 25 13 0 24 5 24 11 0 7 -10 9 -25 7 -23
-5 -24 -3 -20 26 2 17 2 25 -1 18 -3 -6 -10 -10 -15 -6 -5 3 -21 7 -35 10 -22
4 -25 2 -19 -16 5 -17 2 -20 -25 -20 -27 0 -32 3 -27 20 3 11 1 23 -4 26 -5 3
-9 11 -8 17 0 9 2 9 6 0 2 -7 11 -13 19 -13 8 0 14 -6 14 -14 0 -8 4 -17 8
-20 5 -3 7 11 6 30 -3 34 -2 35 31 32 19 -1 37 1 41 5 4 3 -222 5 -502 5
l-509 -2 335 -7 c184 -3 347 -10 363 -14 22 -6 27 -12 25 -36 -2 -27 -22 -40
-30 -19 -6 17 -93 21 -508 23 -223 2 -412 6 -421 11 -9 4 -223 6 -476 4 l-459
-3 -42 -27 c-44 -29 -62 -35 -62 -18 0 6 23 24 51 41 27 17 49 33 47 34 -2 2
-247 5 -546 7 -299 2 -535 1 -524 -3 10 -4 45 -24 78 -45 50 -33 56 -39 36
-42 -13 -2 -29 2 -37 8 -8 6 -19 9 -25 5 -6 -4 -9 -1 -8 7 2 7 -5 12 -14 12
-10 -1 -15 2 -12 7 4 8 -24 9 -226 12 -77 1 -217 -25 -190 -36 10 -4 8 -6 -7
-6 -13 -1 -23 3 -23 8 0 5 -2 15 -5 23 -12 32 36 43 215 49 141 4 113 5 -145
6 -176 0 -312 -1 -302 -4z m2350 -100 c7 -11 14 -10 40 4 41 21 198 24 205 4
3 -10 6 -10 12 -1 7 11 215 22 253 12 24 -6 17 -34 -13 -49 -42 -21 5 -29 48
-9 l36 18 -23 17 c-31 24 -9 39 24 17 21 -14 27 -14 61 0 22 9 40 12 46 6 6
-6 -3 -14 -21 -22 -34 -14 -40 -27 -16 -36 18 -7 20 -34 3 -34 -6 0 -19 7 -29
16 -17 15 -21 15 -59 0 -53 -21 -78 -20 -118 4 -40 25 -38 25 -45 -1 -3 -12
-11 -19 -19 -16 -13 4 -14 16 -3 54 6 20 4 21 -39 19 -59 -4 -73 -16 -18 -16
23 0 42 -4 42 -10 0 -5 -20 -10 -45 -10 -25 0 -45 -4 -45 -10 0 -5 18 -10 40
-10 22 0 40 -4 40 -10 0 -12 -90 -13 -109 -1 -8 5 -12 18 -8 31 4 16 3 19 -7
10 -8 -5 -33 -13 -57 -16 -24 -4 -47 -11 -51 -17 -8 -13 -38 -18 -38 -7 0 5 5
21 10 36 6 15 9 29 7 31 -10 9 -76 -32 -86 -53 -14 -31 -31 -31 -31 -1 0 13
-9 32 -20 42 -11 10 -20 21 -20 26 0 12 44 -3 53 -18z"/>
</g>
</svg>
